<svg width="162" height="31" viewBox="0 0 162 31" fill="none" xmlns="http://www.w3.org/2000/svg">
<path d="M7.54261 30H0.951705L10.9943 0.90909H18.9205L28.9489 30H22.358L15.071 7.55682H14.8438L7.54261 30ZM7.13068 18.5653H22.6989V23.3665H7.13068V18.5653ZM32.4503 30V0.90909H43.9276C46.134 0.90909 48.0137 1.33049 49.5668 2.1733C51.1198 3.00663 52.3035 4.16667 53.1179 5.65341C53.9418 7.13068 54.3537 8.83523 54.3537 10.767C54.3537 12.6989 53.937 14.4034 53.1037 15.8807C52.2704 17.358 51.063 18.5085 49.4815 19.3324C47.9096 20.1562 46.0062 20.5682 43.7713 20.5682H36.456V15.6392H42.777C43.9607 15.6392 44.9361 15.4356 45.7031 15.0284C46.4796 14.6117 47.0573 14.0388 47.4361 13.3097C47.8243 12.571 48.0185 11.7235 48.0185 10.767C48.0185 9.80114 47.8243 8.95833 47.4361 8.23864C47.0573 7.50947 46.4796 6.94602 45.7031 6.5483C44.9266 6.1411 43.9418 5.9375 42.7486 5.9375H38.6009V30H32.4503ZM85.0817 15.4545C85.0817 18.6269 84.4804 21.3258 83.2777 23.5511C82.0845 25.7765 80.4557 27.4763 78.3913 28.6506C76.3364 29.8153 74.0258 30.3977 71.4595 30.3977C68.8743 30.3977 66.5542 29.8106 64.4993 28.6364C62.4444 27.4621 60.8203 25.7623 59.6271 23.5369C58.4339 21.3116 57.8374 18.6174 57.8374 15.4545C57.8374 12.2822 58.4339 9.58333 59.6271 7.35795C60.8203 5.13258 62.4444 3.4375 64.4993 2.27273C66.5542 1.09848 68.8743 0.511363 71.4595 0.511363C74.0258 0.511363 76.3364 1.09848 78.3913 2.27273C80.4557 3.4375 82.0845 5.13258 83.2777 7.35795C84.4804 9.58333 85.0817 12.2822 85.0817 15.4545ZM78.8459 15.4545C78.8459 13.3996 78.5381 11.6667 77.9226 10.2557C77.3165 8.8447 76.4595 7.77462 75.3516 7.04545C74.2436 6.31629 72.9463 5.9517 71.4595 5.9517C69.9728 5.9517 68.6754 6.31629 67.5675 7.04545C66.4595 7.77462 65.5978 8.8447 64.9822 10.2557C64.3762 11.6667 64.0732 13.3996 64.0732 15.4545C64.0732 17.5095 64.3762 19.2424 64.9822 20.6534C65.5978 22.0644 66.4595 23.1345 67.5675 23.8636C68.6754 24.5928 69.9728 24.9574 71.4595 24.9574C72.9463 24.9574 74.2436 24.5928 75.3516 23.8636C76.4595 23.1345 77.3165 22.0644 77.9226 20.6534C78.5381 19.2424 78.8459 17.5095 78.8459 15.4545ZM97.7876 5.98011V0.90909H121.68V5.98011H112.773V30H106.694V5.98011H97.7876ZM131.765 0.90909V30H125.614V0.90909H131.765ZM136.825 30V0.90909H142.976V13.7358H143.359L153.828 0.90909H161.2L150.405 13.9347L161.328 30H153.97L146.001 18.0398L142.976 21.733V30H136.825Z" fill="#ACACAC"/>
</svg>
