<svg width="219" height="31" viewBox="0 0 219 31" fill="none" xmlns="http://www.w3.org/2000/svg">
<path d="M10.8409 30H0.528409V0.90909H10.9261C13.8523 0.90909 16.3712 1.49148 18.483 2.65625C20.5947 3.81155 22.2188 5.47348 23.3551 7.64205C24.5009 9.81061 25.0739 12.4053 25.0739 15.4261C25.0739 18.4564 24.5009 21.0606 23.3551 23.2386C22.2188 25.4167 20.5852 27.0881 18.4545 28.2528C16.3333 29.4176 13.7955 30 10.8409 30ZM6.67898 24.7301H10.5852C12.4034 24.7301 13.9328 24.4081 15.1733 23.7642C16.4233 23.1108 17.3608 22.1023 17.9858 20.7386C18.6203 19.3655 18.9375 17.5947 18.9375 15.4261C18.9375 13.2765 18.6203 11.5199 17.9858 10.1562C17.3608 8.79261 16.428 7.78883 15.1875 7.14489C13.947 6.50095 12.4176 6.17898 10.5994 6.17898H6.67898V24.7301ZM56.3629 15.4545C56.3629 18.6269 55.7616 21.3258 54.5589 23.5511C53.3658 25.7765 51.737 27.4763 49.6726 28.6506C47.6177 29.8153 45.3071 30.3977 42.7408 30.3977C40.1555 30.3977 37.8355 29.8106 35.7805 28.6364C33.7256 27.4621 32.1016 25.7623 30.9084 23.5369C29.7152 21.3116 29.1186 18.6174 29.1186 15.4545C29.1186 12.2822 29.7152 9.58333 30.9084 7.35795C32.1016 5.13258 33.7256 3.4375 35.7805 2.27273C37.8355 1.09848 40.1555 0.511363 42.7408 0.511363C45.3071 0.511363 47.6177 1.09848 49.6726 2.27273C51.737 3.4375 53.3658 5.13258 54.5589 7.35795C55.7616 9.58333 56.3629 12.2822 56.3629 15.4545ZM50.1271 15.4545C50.1271 13.3996 49.8194 11.6667 49.2038 10.2557C48.5978 8.8447 47.7408 7.77462 46.6328 7.04545C45.5249 6.31629 44.2275 5.9517 42.7408 5.9517C41.254 5.9517 39.9567 6.31629 38.8487 7.04545C37.7408 7.77462 36.879 8.8447 36.2635 10.2557C35.6574 11.6667 35.3544 13.3996 35.3544 15.4545C35.3544 17.5095 35.6574 19.2424 36.2635 20.6534C36.879 22.0644 37.7408 23.1345 38.8487 23.8636C39.9567 24.5928 41.254 24.9574 42.7408 24.9574C44.2275 24.9574 45.5249 24.5928 46.6328 23.8636C47.7408 23.1345 48.5978 22.0644 49.2038 20.6534C49.8194 19.2424 50.1271 17.5095 50.1271 15.4545ZM86.5866 11.0938H80.3651C80.2514 10.2888 80.0194 9.57386 79.669 8.94886C79.3187 8.31439 78.8688 7.77462 78.3196 7.32955C77.7704 6.88447 77.1359 6.54356 76.4162 6.30682C75.706 6.07008 74.9342 5.9517 74.1009 5.9517C72.5952 5.9517 71.2836 6.32576 70.1662 7.07386C69.0488 7.8125 68.1823 8.89205 67.5668 10.3125C66.9512 11.7235 66.6435 13.4375 66.6435 15.4545C66.6435 17.5284 66.9512 19.2708 67.5668 20.6818C68.1918 22.0928 69.063 23.1581 70.1804 23.8778C71.2978 24.5975 72.5904 24.9574 74.0582 24.9574C74.8821 24.9574 75.6444 24.8485 76.3452 24.6307C77.0554 24.4129 77.6851 24.0956 78.2344 23.679C78.7836 23.2528 79.2382 22.7367 79.598 22.1307C79.9673 21.5246 80.223 20.8333 80.3651 20.0568L86.5866 20.0852C86.4257 21.4205 86.0232 22.7083 85.3793 23.9489C84.7448 25.1799 83.8878 26.2831 82.8082 27.2585C81.7382 28.2244 80.4598 28.9915 78.973 29.5597C77.4957 30.1184 75.8243 30.3977 73.9588 30.3977C71.3641 30.3977 69.044 29.8106 66.9986 28.6364C64.9626 27.4621 63.3527 25.7623 62.169 23.5369C60.9948 21.3116 60.4077 18.6174 60.4077 15.4545C60.4077 12.2822 61.0043 9.58333 62.1974 7.35795C63.3906 5.13258 65.0099 3.4375 67.0554 2.27273C69.1009 1.09848 71.402 0.511363 73.9588 0.511363C75.6444 0.511363 77.2069 0.748105 78.6463 1.22159C80.0952 1.69508 81.3783 2.38636 82.4957 3.29545C83.6132 4.19507 84.5223 5.29829 85.223 6.60511C85.9332 7.91193 86.3878 9.40814 86.5866 11.0938ZM116.036 9.27557C115.923 8.12973 115.435 7.23958 114.573 6.60511C113.711 5.97064 112.542 5.65341 111.065 5.65341C110.061 5.65341 109.213 5.79545 108.522 6.07955C107.831 6.35417 107.3 6.73769 106.931 7.23011C106.571 7.72254 106.391 8.28125 106.391 8.90625C106.372 9.42708 106.481 9.88163 106.718 10.2699C106.964 10.6581 107.3 10.9943 107.727 11.2784C108.153 11.553 108.645 11.7945 109.204 12.0028C109.763 12.2017 110.359 12.3722 110.994 12.5142L113.607 13.1392C114.876 13.4233 116.041 13.8021 117.102 14.2756C118.162 14.7491 119.081 15.3314 119.857 16.0227C120.634 16.714 121.235 17.5284 121.661 18.4659C122.097 19.4034 122.319 20.4782 122.329 21.6903C122.319 23.4706 121.865 25.0142 120.965 26.321C120.075 27.6184 118.787 28.6269 117.102 29.3466C115.425 30.0568 113.404 30.4119 111.036 30.4119C108.688 30.4119 106.642 30.0521 104.9 29.3324C103.167 28.6127 101.813 27.5473 100.837 26.1364C99.8714 24.7159 99.3648 22.9593 99.3175 20.8665H105.269C105.335 21.8419 105.615 22.6562 106.107 23.3097C106.609 23.9536 107.277 24.4413 108.11 24.7727C108.953 25.0947 109.905 25.2557 110.965 25.2557C112.007 25.2557 112.911 25.1042 113.678 24.8011C114.455 24.4981 115.056 24.0767 115.482 23.5369C115.908 22.9972 116.121 22.3769 116.121 21.6761C116.121 21.0227 115.927 20.4735 115.539 20.0284C115.16 19.5833 114.602 19.2045 113.863 18.892C113.134 18.5795 112.239 18.2955 111.178 18.0398L108.011 17.2443C105.558 16.6477 103.621 15.715 102.201 14.446C100.781 13.1771 100.075 11.4678 100.085 9.31818C100.075 7.55682 100.544 6.01799 101.491 4.7017C102.447 3.38542 103.759 2.35795 105.425 1.61932C107.092 0.880681 108.986 0.511363 111.107 0.511363C113.266 0.511363 115.151 0.880681 116.761 1.61932C118.38 2.35795 119.639 3.38542 120.539 4.7017C121.439 6.01799 121.903 7.54261 121.931 9.27557H116.036ZM130.816 30H124.225L134.268 0.90909H142.194L152.222 30H145.631L138.344 7.55682H138.117L130.816 30ZM130.404 18.5653H145.972V23.3665H130.404V18.5653ZM155.724 0.90909H163.309L171.32 20.4545H171.661L179.673 0.90909H187.258V30H181.292V11.0653H181.05L173.522 29.858H169.46L161.931 10.9943H161.69V30H155.724V0.90909ZM197.339 30H190.749L200.791 0.90909H208.717L218.746 30H212.155L204.868 7.55682H204.641L197.339 30ZM196.928 18.5653H212.496V23.3665H196.928V18.5653Z" fill="#ACACAC"/>
</svg>
