<svg width="227" height="31" viewBox="0 0 227 31" fill="none" xmlns="http://www.w3.org/2000/svg">
<path d="M0.528409 30V0.90909H6.67898V12.9119H19.1648V0.90909H25.3011V30H19.1648V17.983H6.67898V30H0.528409ZM35.3864 30H28.7955L38.8381 0.90909H46.7642L56.7926 30H50.2017L42.9148 7.55682H42.6875L35.3864 30ZM34.9744 18.5653H50.5426V23.3665H34.9744V18.5653ZM60.294 30V0.90909H66.4446V24.929H78.9162V30H60.294ZM108.589 15.4545C108.589 18.6269 107.988 21.3258 106.786 23.5511C105.592 25.7765 103.964 27.4763 101.899 28.6506C99.8442 29.8153 97.5336 30.3977 94.9673 30.3977C92.3821 30.3977 90.062 29.8106 88.0071 28.6364C85.9522 27.4621 84.3281 25.7623 83.1349 23.5369C81.9418 21.3116 81.3452 18.6174 81.3452 15.4545C81.3452 12.2822 81.9418 9.58333 83.1349 7.35795C84.3281 5.13258 85.9522 3.4375 88.0071 2.27273C90.062 1.09848 92.3821 0.511363 94.9673 0.511363C97.5336 0.511363 99.8442 1.09848 101.899 2.27273C103.964 3.4375 105.592 5.13258 106.786 7.35795C107.988 9.58333 108.589 12.2822 108.589 15.4545ZM102.354 15.4545C102.354 13.3996 102.046 11.6667 101.43 10.2557C100.824 8.8447 99.9673 7.77462 98.8594 7.04545C97.7514 6.31629 96.4541 5.9517 94.9673 5.9517C93.4806 5.9517 92.1832 6.31629 91.0753 7.04545C89.9673 7.77462 89.1056 8.8447 88.4901 10.2557C87.884 11.6667 87.581 13.3996 87.581 15.4545C87.581 17.5095 87.884 19.2424 88.4901 20.6534C89.1056 22.0644 89.9673 23.1345 91.0753 23.8636C92.1832 24.5928 93.4806 24.9574 94.9673 24.9574C96.4541 24.9574 97.7514 24.5928 98.8594 23.8636C99.9673 23.1345 100.824 22.0644 101.43 20.6534C102.046 19.2424 102.354 17.5095 102.354 15.4545ZM123.458 30H113.146V0.90909H123.543C126.469 0.90909 128.988 1.49148 131.1 2.65625C133.212 3.81155 134.836 5.47348 135.972 7.64205C137.118 9.81061 137.691 12.4053 137.691 15.4261C137.691 18.4564 137.118 21.0606 135.972 23.2386C134.836 25.4167 133.202 27.0881 131.072 28.2528C128.951 29.4176 126.413 30 123.458 30ZM119.296 24.7301H123.202C125.021 24.7301 126.55 24.4081 127.79 23.7642C129.04 23.1108 129.978 22.1023 130.603 20.7386C131.237 19.3655 131.555 17.5947 131.555 15.4261C131.555 13.2765 131.237 11.5199 130.603 10.1562C129.978 8.79261 129.045 7.78883 127.805 7.14489C126.564 6.50095 125.035 6.17898 123.217 6.17898H119.296V24.7301ZM160.216 0.90909H166.366V19.8011C166.366 21.9223 165.86 23.7784 164.847 25.3693C163.843 26.9602 162.437 28.2008 160.628 29.0909C158.819 29.9716 156.712 30.4119 154.307 30.4119C151.892 30.4119 149.78 29.9716 147.972 29.0909C146.163 28.2008 144.757 26.9602 143.753 25.3693C142.749 23.7784 142.247 21.9223 142.247 19.8011V0.90909H148.398V19.2756C148.398 20.3835 148.639 21.3684 149.122 22.2301C149.615 23.0919 150.306 23.7689 151.196 24.2614C152.086 24.7538 153.123 25 154.307 25C155.5 25 156.537 24.7538 157.418 24.2614C158.308 23.7689 158.994 23.0919 159.477 22.2301C159.97 21.3684 160.216 20.3835 160.216 19.2756V0.90909ZM197.094 11.0938H190.873C190.759 10.2888 190.527 9.57386 190.177 8.94886C189.826 8.31439 189.377 7.77462 188.827 7.32955C188.278 6.88447 187.644 6.54356 186.924 6.30682C186.214 6.07008 185.442 5.9517 184.609 5.9517C183.103 5.9517 181.791 6.32576 180.674 7.07386C179.557 7.8125 178.69 8.89205 178.075 10.3125C177.459 11.7235 177.151 13.4375 177.151 15.4545C177.151 17.5284 177.459 19.2708 178.075 20.6818C178.7 22.0928 179.571 23.1581 180.688 23.8778C181.806 24.5975 183.098 24.9574 184.566 24.9574C185.39 24.9574 186.152 24.8485 186.853 24.6307C187.563 24.4129 188.193 24.0956 188.742 23.679C189.291 23.2528 189.746 22.7367 190.106 22.1307C190.475 21.5246 190.731 20.8333 190.873 20.0568L197.094 20.0852C196.933 21.4205 196.531 22.7083 195.887 23.9489C195.253 25.1799 194.396 26.2831 193.316 27.2585C192.246 28.2244 190.968 28.9915 189.481 29.5597C188.004 30.1184 186.332 30.3977 184.467 30.3977C181.872 30.3977 179.552 29.8106 177.506 28.6364C175.47 27.4621 173.861 25.7623 172.677 23.5369C171.503 21.3116 170.915 18.6174 170.915 15.4545C170.915 12.2822 171.512 9.58333 172.705 7.35795C173.898 5.13258 175.518 3.4375 177.563 2.27273C179.609 1.09848 181.91 0.511363 184.467 0.511363C186.152 0.511363 187.715 0.748105 189.154 1.22159C190.603 1.69508 191.886 2.38636 193.004 3.29545C194.121 4.19507 195.03 5.29829 195.731 6.60511C196.441 7.91193 196.896 9.40814 197.094 11.0938ZM201.505 30V0.90909H207.656V13.7358H208.039L218.508 0.90909H225.88L215.085 13.9347L226.008 30H218.65L210.681 18.0398L207.656 21.733V30H201.505Z" fill="#ACACAC"/>
</svg>
