<svg width="148" height="31" viewBox="0 0 148 31" fill="none" xmlns="http://www.w3.org/2000/svg">
<path d="M27.2614 15.4545C27.2614 18.6269 26.66 21.3258 25.4574 23.5511C24.2642 25.7765 22.6354 27.4763 20.571 28.6506C18.5161 29.8153 16.2055 30.3977 13.6392 30.3977C11.054 30.3977 8.7339 29.8106 6.67898 28.6364C4.62405 27.4621 3 25.7623 1.80682 23.5369C0.613636 21.3116 0.0170455 18.6174 0.0170455 15.4545C0.0170455 12.2822 0.613636 9.58333 1.80682 7.35795C3 5.13258 4.62405 3.4375 6.67898 2.27273C8.7339 1.09848 11.054 0.511363 13.6392 0.511363C16.2055 0.511363 18.5161 1.09848 20.571 2.27273C22.6354 3.4375 24.2642 5.13258 25.4574 7.35795C26.66 9.58333 27.2614 12.2822 27.2614 15.4545ZM21.0256 15.4545C21.0256 13.3996 20.7178 11.6667 20.1023 10.2557C19.4962 8.8447 18.6392 7.77462 17.5312 7.04545C16.4233 6.31629 15.1259 5.9517 13.6392 5.9517C12.1525 5.9517 10.8551 6.31629 9.74716 7.04545C8.6392 7.77462 7.77746 8.8447 7.16193 10.2557C6.55587 11.6667 6.25284 13.3996 6.25284 15.4545C6.25284 17.5095 6.55587 19.2424 7.16193 20.6534C7.77746 22.0644 8.6392 23.1345 9.74716 23.8636C10.8551 24.5928 12.1525 24.9574 13.6392 24.9574C15.1259 24.9574 16.4233 24.5928 17.5312 23.8636C18.6392 23.1345 19.4962 22.0644 20.1023 20.6534C20.7178 19.2424 21.0256 17.5095 21.0256 15.4545ZM31.8175 30V0.90909H43.4652C45.6054 0.90909 47.3904 1.22633 48.8203 1.8608C50.2502 2.49527 51.325 3.37595 52.0447 4.50284C52.7644 5.62027 53.1243 6.90814 53.1243 8.36648C53.1243 9.50284 52.897 10.5019 52.4425 11.3636C51.9879 12.2159 51.3629 12.9167 50.5675 13.4659C49.7815 14.0057 48.8819 14.3892 47.8686 14.6165V14.9006C48.9766 14.9479 50.0135 15.2604 50.9794 15.8381C51.9548 16.4157 52.7455 17.2254 53.3516 18.267C53.9576 19.2992 54.2607 20.5303 54.2607 21.9602C54.2607 23.5038 53.8771 24.8816 53.1101 26.0938C52.3525 27.2964 51.2304 28.2481 49.7436 28.9489C48.2569 29.6496 46.4245 30 44.2464 30H31.8175ZM37.968 24.9716H42.9822C44.6963 24.9716 45.9463 24.6449 46.7322 23.9915C47.5182 23.3286 47.9112 22.4479 47.9112 21.3494C47.9112 20.5445 47.7171 19.8343 47.3288 19.2188C46.9406 18.6032 46.3866 18.1203 45.6669 17.7699C44.9567 17.4195 44.1091 17.2443 43.1243 17.2443H37.968V24.9716ZM37.968 13.0824H42.5277C43.3705 13.0824 44.1186 12.9356 44.772 12.642C45.4349 12.339 45.9557 11.9129 46.3345 11.3636C46.7228 10.8144 46.9169 10.1562 46.9169 9.3892C46.9169 8.33807 46.5429 7.49053 45.7947 6.84659C45.0561 6.20265 44.005 5.88068 42.6413 5.88068H37.968V13.0824ZM63.277 30H56.6861L66.7287 0.90909H74.6548L84.6832 30H78.0923L70.8054 7.55682H70.5781L63.277 30ZM62.8651 18.5653H78.4332V23.3665H62.8651V18.5653ZM83.522 5.98011V0.90909H107.414V5.98011H98.5078V30H92.4283V5.98011H83.522ZM117.499 0.90909V30H111.349V0.90909H117.499ZM122.56 30V0.90909H128.71V13.7358H129.094L139.562 0.90909H146.935L136.139 13.9347L147.062 30H139.705L131.736 18.0398L128.71 21.733V30H122.56Z" fill="#ACACAC"/>
</svg>
