<svg width="187" height="31" viewBox="0 0 187 31" fill="none" xmlns="http://www.w3.org/2000/svg">
<path d="M0.528409 30V0.90909H12.0057C14.2121 0.90909 16.0919 1.33049 17.6449 2.1733C19.1979 3.00663 20.3816 4.16667 21.196 5.65341C22.0199 7.13068 22.4318 8.83523 22.4318 10.767C22.4318 12.6989 22.0152 14.4034 21.1818 15.8807C20.3485 17.358 19.1411 18.5085 17.5597 19.3324C15.9877 20.1562 14.0843 20.5682 11.8494 20.5682H4.53409V15.6392H10.8551C12.0388 15.6392 13.0142 15.4356 13.7812 15.0284C14.5578 14.6117 15.1354 14.0388 15.5142 13.3097C15.9025 12.571 16.0966 11.7235 16.0966 10.767C16.0966 9.80114 15.9025 8.95833 15.5142 8.23864C15.1354 7.50947 14.5578 6.94602 13.7812 6.5483C13.0047 6.1411 12.0199 5.9375 10.8267 5.9375H6.67898V30H0.528409ZM28.0817 30H21.4908L31.5334 0.90909H39.4595L49.4879 30H42.897L35.6101 7.55682H35.3828L28.0817 30ZM27.6697 18.5653H43.2379V23.3665H27.6697V18.5653ZM52.9893 30V0.90909H64.4666C66.6636 0.90909 68.5386 1.30208 70.0916 2.08807C71.6541 2.86458 72.8426 3.9678 73.657 5.39773C74.4808 6.81818 74.8928 8.48958 74.8928 10.4119C74.8928 12.3437 74.4761 14.0057 73.6428 15.3977C72.8094 16.7803 71.602 17.8409 70.0206 18.5795C68.4486 19.3182 66.5452 19.6875 64.3104 19.6875H56.6257V14.7443H63.3161C64.4903 14.7443 65.4657 14.5833 66.2422 14.2614C67.0187 13.9394 67.5964 13.4564 67.9751 12.8125C68.3634 12.1686 68.5575 11.3684 68.5575 10.4119C68.5575 9.44602 68.3634 8.63163 67.9751 7.96875C67.5964 7.30587 67.014 6.80398 66.228 6.46307C65.4515 6.11269 64.4714 5.9375 63.2876 5.9375H59.1399V30H52.9893ZM68.6996 16.7614L75.9297 30H69.1399L62.0661 16.7614H68.6996ZM88.4972 0.90909H96.0824L104.094 20.4545H104.435L112.446 0.90909H120.031V30H114.065V11.0653H113.824L106.295 29.858H102.233L94.7045 10.9943H94.4631V30H88.4972V0.90909ZM130.113 30H123.522L133.565 0.90909H141.491L151.519 30H144.928L137.641 7.55682H137.414L130.113 30ZM129.701 18.5653H145.269V23.3665H129.701V18.5653ZM170.138 9.27557C170.024 8.12973 169.536 7.23958 168.675 6.60511C167.813 5.97064 166.643 5.65341 165.166 5.65341C164.162 5.65341 163.315 5.79545 162.624 6.07955C161.932 6.35417 161.402 6.73769 161.033 7.23011C160.673 7.72254 160.493 8.28125 160.493 8.90625C160.474 9.42708 160.583 9.88163 160.82 10.2699C161.066 10.6581 161.402 10.9943 161.828 11.2784C162.254 11.553 162.747 11.7945 163.305 12.0028C163.864 12.2017 164.461 12.3722 165.095 12.5142L167.709 13.1392C168.978 13.4233 170.143 13.8021 171.203 14.2756C172.264 14.7491 173.182 15.3314 173.959 16.0227C174.735 16.714 175.337 17.5284 175.763 18.4659C176.198 19.4034 176.421 20.4782 176.43 21.6903C176.421 23.4706 175.966 25.0142 175.067 26.321C174.177 27.6184 172.889 28.6269 171.203 29.3466C169.527 30.0568 167.505 30.4119 165.138 30.4119C162.789 30.4119 160.744 30.0521 159.001 29.3324C157.268 28.6127 155.914 27.5473 154.939 26.1364C153.973 24.7159 153.466 22.9593 153.419 20.8665H159.371C159.437 21.8419 159.716 22.6562 160.209 23.3097C160.711 23.9536 161.378 24.4413 162.212 24.7727C163.054 25.0947 164.006 25.2557 165.067 25.2557C166.108 25.2557 167.013 25.1042 167.78 24.8011C168.556 24.4981 169.158 24.0767 169.584 23.5369C170.01 22.9972 170.223 22.3769 170.223 21.6761C170.223 21.0227 170.029 20.4735 169.641 20.0284C169.262 19.5833 168.703 19.2045 167.964 18.892C167.235 18.5795 166.34 18.2955 165.28 18.0398L162.112 17.2443C159.66 16.6477 157.723 15.715 156.303 14.446C154.882 13.1771 154.177 11.4678 154.186 9.31818C154.177 7.55682 154.645 6.01799 155.592 4.7017C156.549 3.38542 157.86 2.35795 159.527 1.61932C161.194 0.880681 163.088 0.511363 165.209 0.511363C167.368 0.511363 169.252 0.880681 170.862 1.61932C172.482 2.35795 173.741 3.38542 174.641 4.7017C175.54 6.01799 176.004 7.54261 176.033 9.27557H170.138ZM186.718 0.90909V30H180.567V0.90909H186.718Z" fill="#ACACAC"/>
</svg>
